:FULLY-SPECIFIED
:FORCE-ALL-JOINTS-BE-3DOF
:DEGREES
408
root 2.20693 14.991 -36.1977 170.099 88.5676 169.896
lfemur -7.28878 -5.66771 -18.4398
ltibia 57.1927 -0 0
lfoot -27.0078 32.5361 0.0551695
ltoes -17.3053 0 0
rfemur -47.935 -0.720851 7.40209
rtibia 31.9807 -0 0
rfoot 5.16349 -7.78257 1.70237
rtoes 15.2626 -0 0
lowerback 15.9191 -0.87632 -9.11754
upperback -0.183563 -2.45431 3.80281
thorax -8.58058 -0.664126 9.98121
lowerneck 0.406641 -11.0952 -11.0959
upperneck 4.40539 -15.176 9.67099
head 3.3322 -7.6266 4.22269
lclavicle 2.0074e-14 -1.37133e-14 6.5985e-31
lhumerus -43.155 -39.4352 109.621
lradius 94.0201 -0 0
lwrist 40.319 0 0
lhand -13.6851 38.5934 -0.0815455
lfingers 7.12502 -0 0
lthumb 12.4253 68.0616 -0.10517
rclavicle 2.0074e-14 -1.37133e-14 6.5985e-31
rhumerus 35.363 16.648 -48.0423
rradius 85.2562 -0 0
rwrist -17.5581 0 0
rhand 10.5877 -25.2916 0.96855
rfingers 7.12502 -0 0
rthumb 35.4934 -50.0038 1.50859
409
root 2.19692 14.9907 -36.2137 173.029 88.6289 172.791
lfemur -7.42065 -5.73567 -18.4518
ltibia 57.3412 -0 0
lfoot -26.9863 32.5981 0.0549366
ltoes -17.3579 0 0
rfemur -47.9627 -0.756195 7.52066
rtibia 31.9762 -0 0
rfoot 4.94766 -7.97509 1.69511
rtoes 15.219 -0 0
lowerback 15.931 -0.902103 -9.10381
upperback -0.170195 -2.48347 3.83165
thorax -8.56477 -0.679545 10.0123
lowerneck 0.490043 -11.1593 -11.1661
upperneck 4.3622 -15.2741 9.78418
head 3.32665 -7.67643 4.26362
lclavicle 2.02927e-14 -1.37862e-14 6.57066e-31
lhumerus -43.0405 -39.5108 109.457
lradius 93.9968 -0 0
lwrist 40.1648 0 0
lhand -13.5743 38.5756 -0.0812009
lfingers 7.12502 -0 0
lthumb 12.5321 68.0378 -0.104726
rclavicle 2.02927e-14 -1.37862e-14 6.57066e-31
rhumerus 35.3172 16.7069 -47.7891
rradius 85.7105 -0 0
rwrist -17.8408 0 0
rhand 10.844 -25.1995 0.964427
rfingers 7.12502 -0 0
rthumb 35.7369 -49.8526 1.50217
410
root 2.1869 14.9903 -36.2297 176.223 88.6864 175.95
lfemur -7.55251 -5.80366 -18.4637
ltibia 57.4896 -0 0
lfoot -26.9648 32.6602 0.0546804
ltoes -17.4105 0 0
rfemur -47.9904 -0.791481 7.63925
rtibia 31.9717 -0 0
rfoot 4.73185 -8.16758 1.68713
rtoes 15.1754 -0 0
lowerback 15.9428 -0.927889 -9.09008
upperback -0.156841 -2.51264 3.86048
thorax -8.54897 -0.694972 10.0433
lowerneck 0.573542 -11.2234 -11.2365
upperneck 4.31878 -15.3721 9.89751
head 3.32106 -7.72625 4.30457
lclavicle 2.05114e-14 -1.38592e-14 6.54003e-31
lhumerus -42.9256 -39.5861 109.292
lradius 93.9735 -0 0
lwrist 40.0107 0 0
lhand -13.4635 38.5578 -0.0808219
lfingers 7.12502 -0 0
lthumb 12.6389 68.0139 -0.104237
rclavicle 2.05114e-14 -1.38592e-14 6.54003e-31
rhumerus 35.2716 16.766 -47.5358
rradius 86.1649 -0 0
rwrist -18.1235 0 0
rhand 11.1003 -25.1074 0.959891
rfingers 7.12502 -0 0
rthumb 35.9804 -49.7014 1.49509
411
root 2.17689 14.99 -36.2457 179.695 88.7394 179.387
lfemur -7.68438 -5.87168 -18.4755
ltibia 57.6381 -0 0
lfoot -26.9433 32.7223 0.0544009
ltoes -17.463 0 0
rfemur -48.0182 -0.82671 7.75785
rtibia 31.9672 -0 0
rfoot 4.51607 -8.36004 1.67843
rtoes 15.1318 -0 0
lowerback 15.9546 -0.953678 -9.07635
upperback -0.143502 -2.54182 3.88931
thorax -8.53318 -0.710408 10.0743
lowerneck 0.657141 -11.2873 -11.3069
upperneck 4.27515 -15.4701 10.011
head 3.31544 -7.77606 4.34552
lclavicle 2.07302e-14 -1.39321e-14 6.50662e-31
lhumerus -42.8102 -39.6612 109.128
lradius 93.9502 -0 0
lwrist 39.8565 0 0
lhand -13.3528 38.54 -0.0804084
lfingers 7.12502 -0 0
lthumb 12.7457 67.9901 -0.103704
rclavicle 2.07302e-14 -1.39321e-14 6.50662e-31
rhumerus 35.2263 16.8252 -47.2824
rradius 86.6193 -0 0
rwrist -18.4062 0 0
rhand 11.3566 -25.0153 0.954944
rfingers 7.12502 -0 0
rthumb 36.2238 -49.5503 1.48738
412
root 2.16688 14.9897 -36.2616 -176.544 88.7875 -176.888
lfemur -7.81626 -5.93973 -18.4871
ltibia 57.7866 -0 0
lfoot -26.9218 32.7843 0.0540981
ltoes -17.5156 0 0
rfemur -48.0461 -0.861882 7.87648
rtibia 31.9626 -0 0
rfoot 4.30032 -8.55247 1.669
rtoes 15.0882 -0 0
lowerback 15.9664 -0.97947 -9.06263
upperback -0.130178 -2.571 3.91813
thorax -8.5174 -0.725852 10.1054
lowerneck 0.740838 -11.3511 -11.3774
upperneck 4.23129 -15.5679 10.1246
head 3.30978 -7.82587 4.38649
lclavicle 2.09489e-14 -1.4005e-14 6.47043e-31
lhumerus -42.6945 -39.736 108.963
lradius 93.9268 -0 0
lwrist 39.7023 0 0
lhand -13.242 38.5222 -0.0799604
lfingers 7.12502 -0 0
lthumb 12.8525 67.9663 -0.103126
rclavicle 2.09489e-14 -1.4005e-14 6.47043e-31
rhumerus 35.1812 16.8847 -47.0291
rradius 87.0736 -0 0
rwrist -18.6889 0 0
rhand 11.6128 -24.9233 0.949586
rfingers 7.12502 -0 0
rthumb 36.4673 -49.3992 1.47903
413
root 2.15686 14.9893 -36.2776 -172.493 88.8299 -172.872
lfemur -7.94813 -6.0078 -18.4985
ltibia 57.935 -0 0
lfoot -26.9003 32.8464 0.0537721
ltoes -17.5682 0 0
rfemur -48.0741 -0.896995 7.99512
rtibia 31.9581 -0 0
rfoot 4.08461 -8.74486 1.65885
rtoes 15.0446 -0 0
lowerback 15.9782 -1.00526 -9.04892
upperback -0.116868 -2.60019 3.94695
thorax -8.50162 -0.741305 10.1364
lowerneck 0.824634 -11.4149 -11.4481
upperneck 4.18721 -15.6657 10.2383
head 3.30409 -7.87568 4.42746
lclavicle 2.11676e-14 -1.4078e-14 6.43145e-31
lhumerus -42.5784 -39.8106 108.797
lradius 93.9035 -0 0
lwrist 39.5482 0 0
lhand -13.1312 38.5043 -0.079478
lfingers 7.12502 -0 0
lthumb 12.9593 67.9424 -0.102504
rclavicle 2.11676e-14 -1.4078e-14 6.43145e-31
rhumerus 35.1364 16.9444 -46.7757
rradius 87.528 -0 0
rwrist -18.9716 0 0
rhand 11.8691 -24.8312 0.943815
rfingers 7.12502 -0 0
rthumb 36.7107 -49.2482 1.47003
414
root 2.14685 14.989 -36.2936 -168.162 88.8662 -168.576
lfemur -8.08001 -6.07589 -18.5098
ltibia 58.0835 -0 0
lfoot -26.8788 32.9085 0.0534227
ltoes -17.6208 0 0
rfemur -48.1021 -0.932051 8.11378
rtibia 31.9536 -0 0
rfoot 3.86893 -8.9372 1.64797
rtoes 15.0009 -0 0
lowerback 15.99 -1.03106 -9.03521
upperback -0.103572 -2.62938 3.97576
thorax -8.48586 -0.756767 10.1674
lowerneck 0.908529 -11.4785 -11.5188
upperneck 4.14291 -15.7634 10.3521
head 3.29835 -7.92548 4.46844
lclavicle 2.13863e-14 -1.41509e-14 6.38969e-31
lhumerus -42.4618 -39.8849 108.631
lradius 93.8802 -0 0
lwrist 39.394 0 0
lhand -13.0204 38.4865 -0.0789612
lfingers 7.12502 -0 0
lthumb 13.0662 67.9186 -0.101837
rclavicle 2.13863e-14 -1.41509e-14 6.38969e-31
rhumerus 35.0919 17.0042 -46.5223
rradius 87.9823 -0 0
rwrist -19.2543 0 0
rhand 12.1253 -24.7392 0.937633
rfingers 7.12502 -0 0
rthumb 36.9541 -49.0972 1.46039
